<?xml version="1.0" encoding="utf-8"?><!-- Uploaded to: Free PNG Logo, freepnglogo.com -->
<svg xmlns="http://www.w3.org/2000/svg" width="56.202" height="41.36" viewBox="0 0 14.87 10.943"><path d="M147.8 148.82c-.158-.077-.226.07-.318.145-.031.024-.058.056-.085.085-.23.245-.499.407-.85.388-.514-.03-.953.132-1.34.525-.083-.484-.357-.774-.773-.96-.218-.096-.439-.192-.592-.402-.106-.15-.135-.316-.189-.48-.034-.098-.068-.2-.181-.217-.124-.019-.172.085-.221.172a2.26 2.26 0 0 0-.262 1.14c.017.89.393 1.598 1.14 2.102.084.058.106.116.08.2-.052.174-.112.342-.166.516-.034.11-.084.135-.203.087a3.4 3.4 0 0 1-1.076-.73c-.53-.514-1.01-1.08-1.61-1.524q-.208-.155-.426-.292c-.61-.593.08-1.08.24-1.138.167-.06.058-.267-.482-.265s-1.035.183-1.665.424a2 2 0 0 1-.288.085 6 6 0 0 0-1.786-.063c-1.168.13-2.101.682-2.787 1.625-.824 1.133-1.018 2.42-.78 3.763.25 1.415.971 2.587 2.081 3.503 1.151.95 2.477 1.415 3.99 1.325.918-.053 1.94-.176 3.094-1.152.29.145.596.203 1.102.246.39.036.766-.02 1.057-.08.456-.096.424-.518.26-.595-1.336-.622-1.043-.369-1.31-.574.68-.802 1.702-1.637 2.102-4.339.031-.214.005-.35 0-.523-.002-.106.021-.147.143-.16.334-.038.659-.13.957-.293.865-.473 1.214-1.249 1.296-2.18.012-.142-.002-.289-.152-.363m-7.54 8.375c-1.293-1.017-1.921-1.352-2.18-1.338-.243.015-.199.292-.146.473.056.178.129.301.23.458.07.103.12.258-.07.373-.417.258-1.141-.086-1.175-.103-.843-.497-1.549-1.153-2.045-2.05a6.26 6.26 0 0 1-.805-2.776c-.012-.239.058-.323.296-.367.312-.058.635-.07.947-.024 1.321.193 2.445.783 3.388 1.719.538.533.945 1.169 1.364 1.79.446.661.926 1.29 1.537 1.806.215.181.388.319.552.42-.496.055-1.325.067-1.892-.381m.621-3.99a.19.19 0 0 1 .257-.178q.04.014.07.046a.2.2 0 0 1 .054.132.19.19 0 0 1-.192.19.19.19 0 0 1-.189-.19m1.927.989c-.124.05-.248.094-.366.099a.77.77 0 0 1-.495-.157c-.17-.142-.29-.222-.341-.47-.022-.106-.01-.27.01-.364.043-.203-.005-.333-.148-.45-.117-.097-.264-.124-.427-.124a.35.35 0 0 1-.157-.048c-.068-.034-.124-.118-.07-.222a.7.7 0 0 1 .118-.13c.22-.125.475-.084.71.01.218.09.383.253.62.485.243.28.287.356.425.566.109.164.208.333.276.526.041.12-.012.219-.155.28z" class="st0" style="fill:#4d6bfe;stroke-width:.264583" transform="translate(-133.085 -147.902)"/></svg>